# xmcd
#
# Track frame offsets: 
#        150
#        16375
#        29133
#        41401
#        56794
#        69569
#        79099
#        96198
#        105881
#        118358
#        133424
#        151050
#
# Disc length: 2177 seconds
#
# Revision: 0
# Processed by: cddbd v1.4PL0 Copyright (c) Steve Scherf et al.
# Submitted via: ExactAudioCopy v0.90a11
#
DISCID=a2087f0c
DTITLE=Alan Gerber - Chicken Walk
DYEAR=1900
DGENRE=
TTITLE0=Solid Ground
TTITLE1=Lucinda
TTITLE2=Fishing Again
TTITLE3=Only The Blues
TTITLE4=Hold On
TTITLE5=Say Wah?
TTITLE6=Five and Dime
TTITLE7=Quick Service
TTITLE8=Big Bad Mama
TTITLE9=Minstrel Blues
TTITLE10=Sweet Home Chicago
TTITLE11=Chicken Walk
EXTD=
EXTT0=
EXTT1=
EXTT2=
EXTT3=
EXTT4=
EXTT5=
EXTT6=
EXTT7=
EXTT8=
EXTT9=
EXTT10=
EXTT11=
PLAYORDER=
